<svg xmlns="http://www.w3.org/2000/svg" viewBox="350 300 1400 1400" width="1024" height="1024">
  <path fill="#828283" d="m 638.829,549.168 c -1.845,89.019 0.13,182.159 -0.065,271.627 l -0.365,71.814 c -0.089,19.083 6.093,52.889 -20.816,55.003 -6.157,0.483 -13.436,0.279 -19.66,0.2 -25.047,-0.317 -50.231,0.578 -75.242,-0.516 -4.493,-0.203 -12.319,-2.252 -15.707,-5.3 -6.964,-6.267 -7.479,-13.92 -7.384,-22.672 -0.343,-35.311 -0.161,-70.685 -0.132,-105.971 l 0.134,-194.625 0.018,-94.081 c 0.023,-34.65 -4.783,-66.25 21.448,-93.051 25.768,-26.328 55.242,-22.181 88.55,-22.049 l 82.218,0.283 c 106.091,0.295 214.421,1.221 320.464,-0.145 0.75,14.679 -0.3,28.026 -0.2,42.458 l -300.302,0.112 -90.985,-0.122 c -15.674,-0.02 -37.431,-1.133 -52.484,0.9 -31.673,4.278 -25.379,51.498 -25.35,73.267 l 0.077,85.49 -0.214,292.883 c 15.574,-0.857 36.727,-0.184 52.706,-0.106 -1.898,-21.059 -0.446,-50.112 -0.443,-71.836 l 0.018,-137.854 -0.057,-112.637 c -0.008,-18.201 -0.294,-36.553 0.345,-54.705 -0.473,-5.344 5.422,-17.299 11.314,-18.434 26.521,-5.107 64.802,-2.45 91.176,-2.297 l 122.61,0.137 67.677,-0.08 c 21.351,-0.155 55.544,-7.417 56.474,21.873 0.594,18.734 0.413,37.244 0.398,55.987 l -0.049,116.277 c 23.616,-0.599 47.648,-1.024 71.279,-0.711 71.25,0.944 139.1,31.746 190.19,80.769 122.71,117.747 127.52,350.384 9.39,472.754 -51.32,52.47 -119.56,85.08 -192.63,92.05 -10.93,1.1 -23.699,1.07 -34.785,1.24 0.764,9.34 0.322,23.29 0.336,33.13 l 0.125,60.02 0.157,52.62 c 0.03,12.67 2.731,31.72 -6.392,41.24 -4.201,4.39 -9.371,6.78 -15.484,6.84 -24.291,0.26 -48.605,0.03 -72.901,-0.02 l -135.836,-0.03 -95.189,0.15 c -15.554,0.02 -31.659,0.34 -47.192,-0.41 -9.071,-0.43 -19.348,-8.23 -20.076,-17.9 -1.497,-19.87 -0.917,-40.11 -0.894,-60.12 l 0.009,-99.43 -0.173,-317.84 c 0,0 -8.23477,-39.8694 23.906,-42.22 27.73491,-2.0284 19.964,50.09 19.979,70.83 l 0.062,94.75 -0.656,330.17 c 102.437,0.36 205.718,-1.22 308.017,-0.23 -1.265,-47.99 -0.532,-103.4 -0.258,-151.61 -38.826,-2.72 -81.61,0.86 -120.765,-0.25 -11.628,-0.33 -23.736,2.19 -33.033,-7.3 -6.176,-6.31 -6.087,-13.01 -6.247,-21.27 -0.264,-44.64 -0.206,-89.3 -0.191,-133.94 l 0.12,-248.446 -0.01,-142.79 c -0.007,-23.966 -0.392,-48.027 0.315,-71.965 0.037,-4.3 2.856,-10.317 5.863,-13.406 7.619,-7.828 22.976,-7.807 32.962,-7.715 25.716,0.236 51.503,-0.311 77.122,0.645 -1.035,-18.109 -0.263,-38.24 -0.32,-56.601 -0.096,-31.523 -0.306,-63.196 0.069,-94.703 z M 1180.62,1227.9 c 105.29,-105.36 103.77,-308.466 -1.34,-413.351 -39.16,-39.368 -90.67,-64.081 -145.88,-69.995 -23.61,-2.344 -52.071,-0.991 -76.005,-1.312 -42.492,-0.571 -86.053,0.886 -128.426,0.098 l 0.149,561.29 c 123.099,-4.34 255.082,24.16 351.502,-76.73 z"/>
  <path fill="#56ad69" d="m 1041.55,1594.6 c -1.39,-38.27 -0.03,-77.11 -0.54,-115.46 0.4,-21.75 -0.98,-44.3 0.89,-65.93 0.71,-8.25 7.7,-16.64 15.29,-17.99 23.66,-4.21 44.31,-9.52 66.78,-17.97 141.41,-53.21 229.25,-192.29 229.92,-341.47 1.86,-106.712 -27.57,-206.84 -102.77,-284.906 -41.93,-43.641 -94.55,-75.558 -152.62,-92.587 -17.55,-5.006 -36.32,-8.655 -54.48,-10.534 -9.04,-0.936 -18.5,-0.534 -27.41,-2.253 -3.56,-0.688 -10.73,-2.063 -13.17,-4.918 -9.245,-10.802 -6.268,-85.813 -6.008,-103.257 0.116,-7.753 -0.337,-18.125 5.458,-24.068 5.75,-5.906 14.8,-6.836 22.63,-6.692 123.58,2.273 242.49,58.233 327.11,147.648 90.26,95.37 135.62,217.522 139.86,347.967 36.63,0.25 75.46,-0.33 111.76,0.42 l -0.14,-32.276 c 29.82,16.349 59.22,36.446 88.95,53.006 -17.78,11.24 -35.74,22.21 -53.87,32.89 -9.4,5.64 -25.69,15.79 -35.5,20.18 -0.07,-8.91 -0.57,-21.97 0.04,-30.56 l -89.42,-0.02 c -19.21,0.02 -62.08,6.49 -64.86,-18.88 -1.45,-13.13 -0.82,-28.271 -1.48,-41.775 -1.4,-27.171 -4.98,-54.186 -10.69,-80.788 -36.19,-163.383 -154.35,-295.285 -316.67,-340.94 -28.29,-7.956 -50.71,-10.764 -79.86,-13.652 0.09,17.958 0.39,36.402 0,54.317 102.86,8.145 194.03,58.708 259.46,136.276 142.18,168.561 129.7,463.032 -42.63,607.222 -55.63,46.54 -104.82,69.05 -173.42,87.53 0.72,49.86 -0.64,104 0.84,153.05 23.35,-4.78 43.95,-9.41 66.83,-16.18 197.68,-58.53 344.95,-226.49 383.73,-428.09 -13.65,-0.43 -40.66,-1 -54.13,-0.06 -25.84,129.66 -102.65,243.51 -213.21,316.01 -19.18,12.61 -139.1,91.15 -130.89,25.51 1.73,-13.84 30.05,-21.1 42.03,-26.16 15.13,-6.49 29.79,-14 43.9,-22.48 98.44,-58.2 175.85,-155.5 207.09,-265.83 3.11,-10.97 5.84,-22.04 8.17,-33.2 1.66,-7.89 2.34,-17.03 5.45,-24.45 1.79,-4.26 4.46,-7.81 8.53,-10.08 3.14,-1.74 6.43,-2.51 9.96,-2.9 12.11,-1.36 97.64,-2.13 106.41,1 4.77,1.71 8.83,6.37 10.69,10.97 8.37,20.62 -18.71,110.09 -27,133.65 -5.9,16.77 -12.87,33.39 -20.33,49.53 -67.82,144.04 -189.95,255.34 -339.65,309.54 -39.35,14.38 -107.73,30.81 -149.94,31.66 -1.06,-5.73 -0.97,-34.5 -1.09,-42.02 z"/>
  <path fill="#828283" d="m 717.736,603.491 c 30.478,0.561 61.166,-0.306 91.655,-0.279 10.391,0.009 19.407,-0.664 29.613,1.81 15.269,12.285 18.232,33.649 -4.384,40.381 -7.537,2.243 -28.264,0.871 -37.077,0.84 l -64.449,-0.087 c 0.667,31.353 0.139,64.451 0.13,95.905 l -0.039,174.064 0.055,485.225 c 33.735,-0.8 72.934,0.22 107.328,0.08 15.403,0.07 31.159,-2.45 45.073,3.24 4.662,5.11 7.495,8.89 8.758,15.96 0.955,5.1 -0.302,10.35 -3.457,14.46 -9.082,11.91 -25.362,9.17 -38.361,9.07 l -43.604,-0.08 -63.32,0.12 c -11.437,0.07 -23.491,0.59 -34.79,-0.33 -11.8,-0.96 -20.343,-10.89 -20.566,-22.56 -0.29,-15.21 -0.25,-30.31 -0.249,-45.49 l 0.036,-85.48 0.045,-258.8 0.007,-278.126 -0.049,-79.217 c -0.064,-14.969 -0.445,-30.121 -0.027,-45.064 0.538,-19.247 10.335,-25.065 27.672,-25.642 z"/>
  <path fill="#828283" d="m 1042.64,1636.62 c -8.82,0.54 -17.64,0.94 -26.48,1.2 -34.564,0.82 -71.228,0.21 -105.992,0.22 l -200.592,0.04 -96.591,0.21 c -34.009,0.1 -65.143,5.1 -91.426,-20.24 -26.876,-25.92 -21.966,-55.9 -21.92,-89.8 l 0.044,-89.01 -0.32,-310.88 c 0.126,-39.2 38.419,-33.8 42.416,-12.32 2.731,14.67 1.202,64.78 1.181,82.34 l 0.054,264.48 c 0.098,22.55 0.069,45.1 -0.084,67.64 -0.055,9.47 -0.678,30.58 0.42,39.02 0.999,7.22 4.329,13.92 9.482,19.07 4.742,4.74 8.675,6.05 15.201,6.31 18.173,0.71 36.54,0.54 54.722,0.53 l 101.471,0.03 c 104.276,0.1 213.333,1.31 317.324,-0.86 0.12,7.52 0.03,36.29 1.09,42.02 z"/>
  <path fill="#56ad69" d="m 1012.29,409.685 c 150.08,0.239 293.81,60.633 399.03,167.669 79.31,78.739 134.57,178.427 159.33,287.412 3.98,17.063 18.49,64.206 5.17,77.647 -10.18,10.279 -33.78,5.422 -36.42,-12.485 -10.28,-69.612 -31.02,-136.426 -65.56,-198.657 -82.24,-150.518 -231.35,-252.767 -401.39,-275.235 -23.05,-2.853 -38.01,-2.406 -60.36,-3.893 -0.1,-14.432 0.95,-27.779 0.2,-42.458 z"/>
</svg>
